# xmcd CD database generated by RipIT
#
# Track frame offsets:
# 150
# 16992
# 35363
# 63252
# 80948
# 96914
# 110290
# 130792
# 155523
# 177067
#
# Disc length: 2505 seconds
#
# Revision: 0
# Processed by: cddbd v1.5.2PL0 Copyright (c) Steve Scherf et al.
# Submitted via: RipIT 3.9.0 www.suwald.com/ripit/ripit.html on 2011-09-11 at 17:06
#
DISCID=7809c70a
DTITLE=Todd Gordon - The Sunday Album
DYEAR=2010
DGENRE=Jazz
TTITLE0=The_Lady's_in_Love_with_you
TTITLE1=Julia
TTITLE2=But_Beautiful
TTITLE3=Everything_must_change
TTITLE4=The_Good_Life
TTITLE5=I_Believe_in_you
TTITLE6=If_You_Could_Read_My_Mind
TTITLE7=I_Left_My_Heart_in_SanFrancisco
TTITLE8=That_Old_Black_Magic
TTITLE9=Didn't_We
EXTD=
EXTT0=
EXTT1=
EXTT2=
EXTT3=
EXTT4=
EXTT5=
EXTT6=
EXTT7=
EXTT8=
EXTT9=
PLAYORDER=
